HIERARCHY
ROOT Hips
{
    OFFSET 0.000000 0.000000 0.000000
    CHANNELS 6 Xposition Yposition Zposition Zrotation Xrotation Yrotation
    JOINT Spine
    {
        OFFSET -0.000000 14.517291 0.000000
        CHANNELS 3 Zrotation Xrotation Yrotation
        JOINT Spine1
        {
            OFFSET -0.000000 37.558300 0.000000
            CHANNELS 3 Zrotation Xrotation Yrotation
            JOINT Neck
            {
                OFFSET -0.000000 37.404057 3.400369
                CHANNELS 3 Zrotation Xrotation Yrotation
                JOINT Head
                {
                    OFFSET -0.000000 24.785618 -3.540803
                    CHANNELS 3 Zrotation Xrotation Yrotation
                    End Site
                    {
                        OFFSET -0.000000 35.408028 0.000000
                    }
                }
            }
            JOINT LeftShoulder
            {
                OFFSET 6.992933 33.973492 -0.192664
                CHANNELS 3 Zrotation Xrotation Yrotation
                JOINT LeftArm
                {
                    OFFSET 21.527611 0.000000 0.000000
                    CHANNELS 3 Zrotation Xrotation Yrotation
                    JOINT LeftForeArm
                    {
                        OFFSET 56.353916 0.000000 0.000000
                        CHANNELS 3 Zrotation Xrotation Yrotation
                        JOINT LeftHand
                        {
                            OFFSET 47.774071 0.000000 0.000000
                            CHANNELS 3 Zrotation Xrotation Yrotation
                            End Site
                            {
                                OFFSET 26.556021 0.000000 0.000000
                            }
                        }
                    }
                }
            }
            JOINT RightShoulder
            {
                OFFSET -7.065357 33.973492 -0.192664
                CHANNELS 3 Zrotation Xrotation Yrotation
                JOINT RightArm
                {
                    OFFSET -21.527611 0.000000 0.000000
                    CHANNELS 3 Zrotation Xrotation Yrotation
                    JOINT RightForeArm
                    {
                        OFFSET -56.353916 0.000000 0.000000
                        CHANNELS 3 Zrotation Xrotation Yrotation
                        JOINT RightHand
                        {
                            OFFSET -47.774071 0.000000 0.000000
                            CHANNELS 3 Zrotation Xrotation Yrotation
                            End Site
                            {
                                OFFSET -26.556021 0.000000 0.000000
                            }
                        }
                    }
                }
            }
        }
    }
    JOINT LeftUpLeg
    {
        OFFSET 17.704014 0.000000 0.000000
        CHANNELS 3 Zrotation Xrotation Yrotation
        JOINT LeftLeg
        {
            OFFSET -0.000000 -81.181816 0.000000
            CHANNELS 3 Zrotation Xrotation Yrotation
            JOINT LeftFoot
            {
                OFFSET -0.000000 -62.821102 0.000000
                CHANNELS 3 Zrotation Xrotation Yrotation
                JOINT LeftToeBase
                {
                    OFFSET -0.000000 -11.507608 26.556021
                    CHANNELS 3 Zrotation Xrotation Yrotation
                    End Site
                    {
                        OFFSET -0.000000 0.000000 7.081605
                    }
                }
            }
        }
    }
    JOINT RightUpLeg
    {
        OFFSET -17.704014 0.000000 0.000000
        CHANNELS 3 Zrotation Xrotation Yrotation
        JOINT RightLeg
        {
            OFFSET -0.000000 -81.181816 0.000000
            CHANNELS 3 Zrotation Xrotation Yrotation
            JOINT RightFoot
            {
                OFFSET -0.000000 -62.821102 0.000000
                CHANNELS 3 Zrotation Xrotation Yrotation
                JOINT RightToeBase
                {
                    OFFSET -0.000000 -11.507608 26.556021
                    CHANNELS 3 Zrotation Xrotation Yrotation
                    End Site
                    {
                        OFFSET -0.000000 0.000000 7.081605
                    }
                }
            }
        }
    }
}
MOTION
Frames:    11
Frame Time:    0.008333
38.469311    149.037033    -99.728157    -1.744223    2.002031    31.662722    2.837128    -0.593647    -1.629719    -7.657415    1.152674    -0.471018    5.501587    0.222150    -15.804481    11.104841    -0.473364    -15.679922    5.163527    8.496028    -15.497124    -35.220600    20.997299    -48.178074    -6.583713    -9.745941    -117.212234    1.945823    -20.302303    -6.786014    -16.063721    -4.741298    -4.831528    19.842009    -23.061691    51.008034    -14.060228    -16.091419    49.309727    4.189260    -8.592067    31.692966    28.360970    -0.823760    -3.595562    -7.269341    18.180080    -15.731772    -17.799702    -23.430241    42.163326    0.000000    0.000000    0.000000    -24.223722    -29.396927    -7.521855    18.537109    43.186150    -16.076090    7.067203    -9.278011    -4.412750    0.000000    0.000000    0.000000    
38.483490    149.054749    -99.769524    -1.771966    1.987591    31.700691    2.840772    -0.590099    -1.663772    -7.697459    1.140107    -0.482817    5.515452    0.264961    -15.801789    11.068858    -0.536661    -15.676066    5.160486    8.507471    -15.465577    -35.184586    21.005138    -48.203060    -6.570719    -9.790220    -117.209061    1.875435    -20.319862    -6.798419    -16.073853    -4.732489    -4.776175    19.862671    -23.115593    50.949917    -14.079065    -15.988963    49.326611    3.969310    -8.537323    31.691395    28.421349    -0.929364    -3.497631    -7.337464    18.338156    -15.782837    -17.769236    -23.420271    42.096432    0.000000    0.000000    0.000000    -24.200991    -29.366344    -7.571503    18.461777    43.136051    -16.027803    7.093685    -9.226678    -4.417511    0.000000    0.000000    0.000000    
38.506031    149.071320    -99.810806    -1.797636    1.971584    31.746872    2.831041    -0.583825    -1.687223    -7.717964    1.138902    -0.490508    5.492963    0.282244    -15.789857    11.067843    -0.593728    -15.654078    5.172782    8.509739    -15.449195    -35.189838    21.002636    -48.234070    -6.540767    -9.812482    -117.185112    1.770649    -20.284134    -6.825069    -16.062391    -4.744792    -4.759189    19.831911    -23.147171    50.896687    -13.932378    -15.975197    49.456161    3.512062    -8.698490    31.750460    28.479097    -1.044538    -3.446588    -7.414635    18.510458    -15.821251    -17.731445    -23.424778    42.059944    0.000000    0.000000    0.000000    -24.190382    -29.328003    -7.601208    18.428490    43.081139    -16.019894    7.113395    -9.178429    -4.419361    0.000000    0.000000    0.000000    
38.533817    149.080490    -99.849197    -1.812124    1.942673    31.781317    2.835579    -0.565431    -1.708450    -7.760010    1.146518    -0.496398    5.471091    0.288859    -15.798869    11.072880    -0.624299    -15.656330    5.192277    8.507338    -15.434537    -35.208984    20.983482    -48.249340    -6.538169    -9.798523    -117.184586    1.760844    -20.266413    -6.829941    -16.023256    -4.763599    -4.743334    19.702568    -23.079264    50.825577    -14.024216    -16.048746    49.430775    3.467424    -8.751318    31.643862    28.528547    -1.135035    -3.417469    -7.486363    18.678844    -15.844890    -17.700134    -23.451118    42.028759    0.000000    0.000000    0.000000    -24.171139    -29.287609    -7.610794    18.381687    43.047565    -15.978505    7.142772    -9.146353    -4.448472    0.000000    0.000000    0.000000    
38.566010    149.085907    -99.890213    -1.824276    1.918589    31.799366    2.827167    -0.545690    -1.701314    -7.776262    1.139431    -0.494206    5.442952    0.369586    -15.833065    11.083911    -0.740874    -15.671297    5.198130    8.532811    -15.453157    -35.223942    20.945148    -48.263054    -6.536849    -9.801768    -117.174927    1.648571    -20.260019    -6.879616    -16.032907    -4.780858    -4.747478    19.678057    -23.101879    50.787483    -13.992039    -16.019173    49.455643    3.342995    -8.768198    31.605963    28.574707    -1.221722    -3.392740    -7.561976    18.859123    -15.892936    -17.647333    -23.486862    42.012806    0.000000    0.000000    0.000000    -24.151182    -29.259340    -7.599928    18.345709    43.015175    -15.939822    7.150761    -9.119839    -4.484080    0.000000    0.000000    0.000000    
38.609264    149.087814    -99.931236    -1.829265    1.885760    31.815065    2.847832    -0.507770    -1.704572    -7.823954    1.116772    -0.496042    5.386854    0.370082    -15.833407    11.085919    -0.740975    -15.663120    5.175670    8.538080    -15.453511    -35.218235    20.932777    -48.249493    -6.538802    -9.796626    -117.188148    1.695911    -20.263300    -6.867105    -16.048506    -4.772581    -4.764862    19.668280    -23.100220    50.800594    -14.007445    -16.024525    49.438862    3.306028    -8.777070    31.679380    28.621889    -1.299840    -3.440579    -7.677790    19.040447    -15.909627    -17.557428    -23.547113    42.059391    0.000000    0.000000    0.000000    -24.135536    -29.214481    -7.551004    18.335144    42.968086    -15.939494    7.163517    -9.095283    -4.516653    0.000000    0.000000    0.000000    
38.659046    149.084396    -99.969559    -1.830553    1.848667    31.819418    2.861149    -0.474488    -1.694122    -7.856322    1.126054    -0.491402    5.339198    0.319361    -15.837587    11.063106    -0.715420    -15.668670    5.159086    8.528214    -15.436263    -35.227085    20.928097    -48.258900    -6.539727    -9.777088    -117.198212    1.761905    -20.251608    -6.843969    -16.091793    -4.792266    -4.802955    19.725636    -23.146357    50.828171    -13.927590    -16.005518    49.500488    3.259574    -8.801608    31.576153    28.658865    -1.355247    -3.463739    -7.764927    19.211798    -15.934362    -17.482346    -23.615278    42.068768    0.000000    0.000000    0.000000    -24.115589    -29.172905    -7.495443    18.321846    42.927105    -15.909142    7.195756    -9.074103    -4.581336    0.000000    0.000000    0.000000    
38.708954    149.082916    -100.010368    -1.829718    1.823360    31.812088    2.859126    -0.449532    -1.674832    -7.886400    1.117880    -0.485009    5.388612    0.346431    -15.845758    10.934858    -0.780083    -15.695560    5.139211    8.529974    -15.431659    -35.219246    20.928989    -48.256493    -6.567215    -9.758035    -117.168442    1.805204    -20.274418    -6.958609    -16.116854    -4.800717    -4.813112    19.751165    -23.173216    50.818855    -14.134364    -15.874306    49.361080    3.577566    -8.510764    31.328140    28.682707    -1.394611    -3.476736    -7.838397    19.346739    -15.974798    -17.400923    -23.675282    42.088142    0.000000    0.000000    0.000000    -24.106373    -29.143051    -7.409748    18.347200    42.874222    -15.920163    7.228033    -9.063006    -4.649856    0.000000    0.000000    0.000000    
38.770397    149.082138    -100.053894    -1.821037    1.804353    31.793180    2.838571    -0.435840    -1.644100    -7.904424    1.110556    -0.474927    5.379923    0.386538    -15.840949    10.916862    -0.813181    -15.686797    5.138045    8.545445    -15.444189    -35.228592    20.951504    -48.271019    -6.552071    -9.792885    -117.151756    1.861689    -20.283035    -6.898564    -16.110792    -4.826099    -4.823673    19.734716    -23.198729    50.833981    -14.128873    -15.800196    49.317722    3.353095    -8.504503    31.371752    28.687759    -1.414712    -3.505978    -7.918362    19.452011    -15.947233    -17.330885    -23.727364    42.090126    0.000000    0.000000    0.000000    -24.107218    -29.117203    -7.350894    18.339886    42.826611    -15.924953    7.247728    -9.028803    -4.683414    0.000000    0.000000    0.000000    
38.840675    149.084549    -100.092911    -1.809684    1.784239    31.765831    2.823794    -0.432181    -1.613325    -7.930736    1.116895    -0.463908    5.332599    0.382986    -15.834268    10.941995    -0.775952    -15.672909    5.136203    8.553384    -15.435184    -35.245655    20.962950    -48.261589    -6.505659    -9.788271    -117.171806    1.893985    -20.210918    -6.824141    -16.113445    -4.856956    -4.820834    19.698503    -23.186573    50.841957    -13.941350    -15.888953    49.440613    2.647012    -8.858867    31.434052    28.689846    -1.410326    -3.553566    -8.002408    19.522894    -15.926254    -17.257631    -23.788271    42.109875    0.000000    0.000000    0.000000    -24.104940    -29.087376    -7.296154    18.314402    42.779297    -15.932678    7.273965    -8.998233    -4.671463    0.000000    0.000000    0.000000    
38.916496    149.091171    -100.129402    -1.795044    1.761660    31.729427    2.826797    -0.437811    -1.581019    -7.976383    1.138940    -0.451303    5.291509    0.396523    -15.827787    10.943647    -0.771148    -15.659670    5.105886    8.554866    -15.416887    -35.232300    20.969818    -48.257919    -6.526152    -9.774887    -117.150093    1.868471    -20.223698    -6.794740    -16.143785    -4.888105    -4.801604    19.694956    -23.144085    50.818604    -14.252487    -15.795447    49.236797    2.904011    -8.583271    31.226120    28.684126    -1.393382    -3.585415    -8.078971    19.589159    -15.874495    -17.184589    -23.822868    42.102673    0.000000    0.000000    0.000000    -24.106459    -29.051901    -7.243063    18.297956    42.724903    -15.936666    7.291522    -8.962258    -4.681222    0.000000    0.000000    0.000000    
